name C:/MyDriveSym/Projects/mobilecap/Data\Session20210903_0002\mocap\ForceDataProcessed\walking3_forces.mot
datacolumns 19
datarows 22
range 0.32450000 0.33500000
endheader 
time	R_ground_force_vx	R_ground_force_vy	R_ground_force_vz	R_ground_force_px	R_ground_force_py	R_ground_force_pz	R_ground_torque_x	R_ground_torque_y	R_ground_torque_z	L_ground_force_vx	L_ground_force_vy	L_ground_force_vz	L_ground_force_px	L_ground_force_py	L_ground_force_pz	L_ground_torque_x	L_ground_torque_y	L_ground_torque_z	
          0.32450000	        -30.93757300	        423.40407300	        -22.86766500	          0.20677600	          0.00600000	         -0.16723400	          0.00000000	         -0.45557800	          0.00000000	          0.00000000	          0.00000000	          0.00000000	          0.71568700	          0.00000000	         -0.22751500	          0.00000000	          0.00000000	          0.00000000	
          0.32500000	        -30.67952600	        422.82907400	        -22.82654600	          0.20700500	          0.00600000	         -0.16721100	          0.00000000	         -0.46422100	          0.00000000	          0.00000000	          0.00000000	          0.00000000	          0.71568700	          0.00000000	         -0.22751500	          0.00000000	          0.00000000	          0.00000000	
          0.32550000	        -30.42248900	        422.26147400	        -22.78580300	          0.20723300	          0.00600000	         -0.16718900	          0.00000000	         -0.47288700	          0.00000000	          0.00000000	          0.00000000	          0.00000000	          0.71568700	          0.00000000	         -0.22751500	          0.00000000	          0.00000000	          0.00000000	
          0.32600000	        -30.16645500	        421.70129600	        -22.74543600	          0.20746200	          0.00600000	         -0.16716600	          0.00000000	         -0.48157300	          0.00000000	          0.00000000	          0.00000000	          0.00000000	          0.71568700	          0.00000000	         -0.22751500	          0.00000000	          0.00000000	          0.00000000	
          0.32650000	        -29.91141500	        421.14856300	        -22.70544800	          0.20769100	          0.00600000	         -0.16714400	          0.00000000	         -0.49028100	          0.00000000	          0.00000000	          0.00000000	          0.00000000	          0.71568700	          0.00000000	         -0.22751500	          0.00000000	          0.00000000	          0.00000000	
          0.32700000	        -29.65736100	        420.60329600	        -22.66584100	          0.20791900	          0.00600000	         -0.16712200	          0.00000000	         -0.49901000	          0.00000000	          0.00000000	          0.00000000	          0.00000000	          0.71568700	          0.00000000	         -0.22751500	          0.00000000	          0.00000000	          0.00000000	
          0.32750000	        -29.40428400	        420.06551700	        -22.62661600	          0.20814800	          0.00600000	         -0.16710000	          0.00000000	         -0.50776000	          0.00000000	          0.00000000	          0.00000000	          0.00000000	          0.71568700	          0.00000000	         -0.22751500	          0.00000000	          0.00000000	          0.00000000	
          0.32800000	        -29.15217500	        419.53524700	        -22.58777400	          0.20837600	          0.00600000	         -0.16707800	          0.00000000	         -0.51653000	          0.00000000	          0.00000000	          0.00000000	          0.00000000	          0.71568700	          0.00000000	         -0.22751500	          0.00000000	          0.00000000	          0.00000000	
          0.32850000	        -28.90102500	        419.01250600	        -22.54931800	          0.20860400	          0.00600000	         -0.16705700	          0.00000000	         -0.52532100	          0.00000000	          0.00000000	          0.00000000	          0.00000000	          0.71568700	          0.00000000	         -0.22751500	          0.00000000	          0.00000000	          0.00000000	
          0.32900000	        -28.65082500	        418.49731400	        -22.51124900	          0.20883300	          0.00600000	         -0.16703500	          0.00000000	         -0.53413100	          0.00000000	          0.00000000	          0.00000000	          0.00000000	          0.71568700	          0.00000000	         -0.22751500	          0.00000000	          0.00000000	          0.00000000	
          0.32950000	        -28.40156600	        417.98968900	        -22.47356800	          0.20906100	          0.00600000	         -0.16701400	          0.00000000	         -0.54296200	          0.00000000	          0.00000000	          0.00000000	          0.00000000	          0.71568700	          0.00000000	         -0.22751500	          0.00000000	          0.00000000	          0.00000000	
          0.33000000	        -28.15323800	        417.48965100	        -22.43627800	          0.20928900	          0.00600000	         -0.16699300	          0.00000000	         -0.55181200	          0.00000000	          0.00000000	          0.00000000	          0.00000000	          0.71568700	          0.00000000	         -0.22751500	          0.00000000	          0.00000000	          0.00000000	
          0.33050000	        -27.90583200	        416.99721700	        -22.39937900	          0.20951700	          0.00600000	         -0.16697200	          0.00000000	         -0.56068200	          0.00000000	          0.00000000	          0.00000000	          0.00000000	          0.71568700	          0.00000000	         -0.22751500	          0.00000000	          0.00000000	          0.00000000	
          0.33100000	        -27.65933900	        416.51240300	        -22.36287300	          0.20974400	          0.00600000	         -0.16695100	          0.00000000	         -0.56957000	          0.00000000	          0.00000000	          0.00000000	          0.00000000	          0.71568700	          0.00000000	         -0.22751500	          0.00000000	          0.00000000	          0.00000000	
          0.33150000	        -27.41374900	        416.03522700	        -22.32676300	          0.20997200	          0.00600000	         -0.16693000	          0.00000000	         -0.57847800	          0.00000000	          0.00000000	          0.00000000	          0.00000000	          0.71568700	          0.00000000	         -0.22751500	          0.00000000	          0.00000000	          0.00000000	
          0.33200000	        -27.16905200	        415.56570500	        -22.29104800	          0.21019900	          0.00600000	         -0.16690900	          0.00000000	         -0.58740500	          0.00000000	          0.00000000	          0.00000000	          0.00000000	          0.71568700	          0.00000000	         -0.22751500	          0.00000000	          0.00000000	          0.00000000	
          0.33250000	        -26.92523900	        415.10385200	        -22.25573200	          0.21042700	          0.00600000	         -0.16688900	          0.00000000	         -0.59634900	          0.00000000	          0.00000000	          0.00000000	          0.00000000	          0.71568700	          0.00000000	         -0.22751500	          0.00000000	          0.00000000	          0.00000000	
          0.33300000	        -26.68229900	        414.64968200	        -22.22081500	          0.21065400	          0.00600000	         -0.16686900	          0.00000000	         -0.60531300	          0.00000000	          0.00000000	          0.00000000	          0.00000000	          0.71568700	          0.00000000	         -0.22751500	          0.00000000	          0.00000000	          0.00000000	
          0.33350000	        -26.44022300	        414.20321000	        -22.18629900	          0.21088100	          0.00600000	         -0.16684900	          0.00000000	         -0.61429400	          0.00000000	          0.00000000	          0.00000000	          0.00000000	          0.71568700	          0.00000000	         -0.22751500	          0.00000000	          0.00000000	          0.00000000	
          0.33400000	        -26.19900200	        413.76444900	        -22.15218600	          0.21110800	          0.00600000	         -0.16682900	          0.00000000	         -0.62329300	          0.00000000	          0.00000000	          0.00000000	          0.00000000	          0.71568700	          0.00000000	         -0.22751500	          0.00000000	          0.00000000	          0.00000000	
          0.33450000	        -25.95862400	        413.33341300	        -22.11847700	          0.21133400	          0.00600000	         -0.16680900	          0.00000000	         -0.63231000	          0.00000000	          0.00000000	          0.00000000	          0.00000000	          0.71568700	          0.00000000	         -0.22751500	          0.00000000	          0.00000000	          0.00000000	
          0.33500000	        -25.71908000	        412.91011400	        -22.08517300	          0.21156100	          0.00600000	         -0.16678900	          0.00000000	         -0.64134400	          0.00000000	          0.00000000	          0.00000000	          0.00000000	          0.71568700	          0.00000000	         -0.22751500	          0.00000000	          0.00000000	          0.00000000	
